<svg width="90" height="117" viewBox="0 0 90 117" fill="none" xmlns="http://www.w3.org/2000/svg">
<path d="M89.2012 83.3425H0.798817C0.357642 83.3425 0 83.7013 0 84.1438V85.7466C0 86.1892 0.357642 86.5479 0.798817 86.5479H89.2012C89.6424 86.5479 90 86.1892 90 85.7466V84.1438C90 83.7013 89.6424 83.3425 89.2012 83.3425Z" fill="#602B21"/>
<path d="M11.1833 87.6164L2.6626 96.6986" stroke="#602B21" stroke-width="2" stroke-linecap="round" stroke-linejoin="round"/>
<path d="M25.5622 87.6164L3.19531 110.055" stroke="#602B21" stroke-width="2" stroke-linecap="round" stroke-linejoin="round"/>
<path d="M41.0061 87.6164L12.7812 116.466" stroke="#602B21" stroke-width="2" stroke-linecap="round" stroke-linejoin="round"/>
<path d="M56.4499 87.6164L26.6274 116.466" stroke="#602B21" stroke-width="2" stroke-linecap="round" stroke-linejoin="round"/>
<path d="M71.8936 87.6164L43.1362 116.466" stroke="#602B21" stroke-width="2" stroke-linecap="round" stroke-linejoin="round"/>
<path d="M87.3375 87.6164L58.5801 116.466" stroke="#602B21" stroke-width="2" stroke-linecap="round" stroke-linejoin="round"/>
<path d="M87.3373 95.6301L79.3491 87.6164" stroke="#602B21" stroke-width="2" stroke-linecap="round" stroke-linejoin="round"/>
<path d="M86.5384 110.322L63.9053 87.6164" stroke="#602B21" stroke-width="2" stroke-linecap="round" stroke-linejoin="round"/>
<path d="M77.4853 116.199L48.9941 87.6164" stroke="#602B21" stroke-width="2" stroke-linecap="round" stroke-linejoin="round"/>
<path d="M62.3077 116.466L33.5503 87.6164" stroke="#602B21" stroke-width="2" stroke-linecap="round" stroke-linejoin="round"/>
<path d="M46.8638 116.466L18.1064 87.6164" stroke="#602B21" stroke-width="2" stroke-linecap="round" stroke-linejoin="round"/>
<path d="M31.42 116.466L2.6626 87.6164" stroke="#602B21" stroke-width="2" stroke-linecap="round" stroke-linejoin="round"/>
<path d="M2.6626 87.6164V107.918C2.6626 112.639 6.47745 116.466 11.1833 116.466H78.8165C83.5223 116.466 87.3372 112.639 87.3372 107.918V87.6164" stroke="#602B21" stroke-width="2" stroke-linecap="round" stroke-linejoin="round"/>
<path fill-rule="evenodd" clip-rule="evenodd" d="M53.4221 23.8497C57.8396 10.1267 65.7351 9.94327 69.2192 11.2192C69.3301 11.2598 69.4435 11.3085 69.5588 11.3651C70.9456 11.9353 72.344 13.4007 73.6365 15.7294C75.1147 18.3925 76.5056 22.3954 77.3343 26.4607C79.3052 36.1284 79.035 44.2533 75.4071 45.5349C74.1443 45.981 72.4666 45.4023 70.6534 44.0964C69.2335 47.5298 67.6801 50.6862 66.0678 53.4706C66.0678 53.4706 53.939 53.4688 49.33 53.4681L47.5815 53.4678C47.9322 44.8288 50.3088 33.5213 53.4221 23.8497Z" fill="white"/>
<path fill-rule="evenodd" clip-rule="evenodd" d="M61.6684 56.0491C64.2253 51.1122 66.5946 43.4536 67.7007 38.016C69.8387 27.5053 68.5611 20.8362 65.1242 19.9171C61.6873 18.998 56.7428 28.3701 54.4507 33.6468C52.1587 38.9234 51.0583 44.9727 50.9703 49.8527" fill="#FF3158"/>
<path fill-rule="evenodd" clip-rule="evenodd" d="M67.197 11.2762C65.3135 11.9416 59.966 14.3874 58.3718 18.3153C56.8955 21.9528 59.0191 26.9396 60.8727 31.0634C64.7279 39.6401 71.7793 46.8165 75.4072 45.5349C79.0351 44.2533 79.3053 36.1284 77.3345 26.4607C76.5057 22.3954 75.1148 18.3925 73.6367 15.7294C71.5995 12.0593 69.2994 10.5335 67.197 11.2762Z" fill="white"/>
<path fill-rule="evenodd" clip-rule="evenodd" d="M40.5783 52.4093C40.1569 43.4051 38.4703 32.5566 35.6361 24.0213C30.1577 7.52303 23.5782 -1.17114 18.0771 0.315261C12.576 1.80166 12.9428 20.1477 15.0223 30.6274C17.1018 41.1071 19.1954 45.4805 22.9927 52.4093" fill="white"/>
<path fill-rule="evenodd" clip-rule="evenodd" d="M38.757 52.4075C38.5108 46.8494 36.7456 39.0286 34.9933 33.7646C31.6063 23.5896 27.1759 18.4549 23.7414 19.3829C20.3069 20.3109 20.6959 30.9075 21.3408 36.6269C21.9858 42.3463 24.0479 48.1371 26.4039 52.4075" fill="#FF3158"/>
<path fill-rule="evenodd" clip-rule="evenodd" d="M72.0851 85.0534C73.3375 81.6183 74.0236 77.8897 74.0236 73.9931C74.0236 56.8799 60.7908 43.0068 44.4673 43.0068C28.1439 43.0068 14.9111 56.8799 14.9111 73.9931C14.9111 77.8803 15.5939 81.6003 16.8405 85.0284" fill="white"/>
<path d="M59.1123 82.9093V83.7756C59.1123 87.6672 62.2508 90.8219 66.1225 90.8219H73.4039C77.2755 90.8219 80.4141 87.6672 80.4141 83.7756V82.9093C80.4141 79.0177 77.2755 75.863 73.4039 75.863H66.1225C62.2508 75.8633 59.1123 79.018 59.1123 82.9093Z" fill="#F5F4F3"/>
<path d="M10.6509 82.9093V83.7756C10.6509 87.6672 13.7894 90.8219 17.661 90.8219H24.9425C28.8141 90.8219 31.9527 87.6672 31.9527 83.7756V82.9093C31.9527 79.0177 28.8141 75.863 24.9425 75.863H17.661C13.7894 75.8633 10.6509 79.018 10.6509 82.9093Z" fill="#F5F4F3"/>
<path d="M67.1003 82.9096V83.7759C67.1003 87.4574 69.9097 90.4777 73.4908 90.7931C73.2865 90.8111 73.0803 90.8219 72.8713 90.8219H65.5899C61.7182 90.8219 58.5796 87.6672 58.5796 83.7756V82.9093C58.5796 79.0177 61.7182 75.863 65.5899 75.863H72.8713C73.0803 75.863 73.2868 75.8741 73.4908 75.8918C69.9097 76.208 67.1003 79.2283 67.1003 82.9096Z" fill="#DADADA"/>
<path d="M18.6388 82.9096V83.7759C18.6388 87.4574 21.4483 90.4777 25.0294 90.7931C24.8251 90.8111 24.6189 90.8219 24.4099 90.8219H17.1285C13.2568 90.8219 10.1182 87.6672 10.1182 83.7756V82.9093C10.1182 79.0177 13.2568 75.863 17.1285 75.863H24.4099C24.6189 75.863 24.8254 75.8741 25.0294 75.8918C21.4483 76.208 18.6388 79.2283 18.6388 82.9096Z" fill="#DADADA"/>
<path d="M35.4142 65.7123C36.4436 65.7123 37.2781 63.9184 37.2781 61.7055C37.2781 59.4925 36.4436 57.6986 35.4142 57.6986C34.3848 57.6986 33.5503 59.4925 33.5503 61.7055C33.5503 63.9184 34.3848 65.7123 35.4142 65.7123Z" fill="#222222"/>
<path d="M54.0534 65.7123C55.0828 65.7123 55.9173 63.9184 55.9173 61.7055C55.9173 59.4925 55.0828 57.6986 54.0534 57.6986C53.024 57.6986 52.1895 59.4925 52.1895 61.7055C52.1895 63.9184 53.024 65.7123 54.0534 65.7123Z" fill="#222222"/>
<path fill-rule="evenodd" clip-rule="evenodd" d="M44.5375 71.2595L42.2138 68.7164C42.1144 68.6077 42.1217 68.4387 42.2301 68.339C42.2793 68.2939 42.3435 68.2688 42.4101 68.2688H47.0575C47.2045 68.2688 47.3237 68.3884 47.3237 68.5359C47.3237 68.6028 47.2988 68.6672 47.2537 68.7164L44.93 71.2595C44.8307 71.3682 44.6622 71.3756 44.5538 71.2759C44.5482 71.2707 44.5427 71.2652 44.5375 71.2595Z" fill="#FF3158"/>
<path d="M37.8105 71.0548C38.7825 72.8356 39.8537 73.726 41.0241 73.726C42.1945 73.726 43.431 72.8356 44.7336 71.0548" stroke="#FF3158" stroke-linecap="round" stroke-linejoin="round"/>
<path d="M44.7339 71.0548C45.7059 72.8356 46.7771 73.726 47.9474 73.726C49.1178 73.726 50.3543 72.8356 51.657 71.0548" stroke="#FF3158" stroke-linecap="round" stroke-linejoin="round"/>
</svg>
