<svg width="20" height="20" viewBox="0 0 20 20" fill="none" xmlns="http://www.w3.org/2000/svg">
<path fill-rule="evenodd" clip-rule="evenodd" d="M2.48139 4.55556C3.86066 4.55556 4.61921 3.57906 4.61921 2.44445C4.59357 1.27992 3.80724 0.307693 2.48246 0.307693C1.15767 0.307693 0.345703 1.33547 0.345703 2.5C0.345703 3.63462 1.18331 4.55556 2.48139 4.55556ZM0.345703 5.64957V19.5385H4.61921V5.64957H0.345703ZM6.64699 6.17621C6.70148 7.36745 6.75596 8.74673 6.75596 10.3974V19.5384H11.0295V11.9113C11.0295 11.532 11.0562 11.1538 11.1652 10.8824C11.4632 10.1249 12.0316 9.20613 13.1662 9.20613C14.6545 9.20613 15.303 10.5053 15.303 12.2083V19.5384H19.5765V11.5875C19.5765 7.69117 17.5466 5.88027 14.8414 5.88027C12.6235 5.88027 11.2987 7.15057 10.7581 8.01703H10.6769L10.4867 6.17621H6.64699Z" fill="#222222"/>
</svg>
