<svg width="16" height="20" viewBox="0 0 16 20" fill="none" xmlns="http://www.w3.org/2000/svg">
<path d="M6.81839 12.9501C6.32698 15.5975 5.72874 18.1361 3.95344 19.4618C3.40668 15.4606 4.75854 12.4548 5.38592 9.26451C4.31569 7.40958 5.51508 3.67544 7.77208 4.59514C10.5496 5.72752 5.36649 11.4924 8.84619 12.213C12.4793 12.9647 13.9633 5.72266 11.7102 3.36661C8.45481 -0.0334471 2.23448 3.28989 2.99976 8.15835C3.18622 9.349 4.37979 9.71028 3.4766 11.3535C1.39345 10.8767 0.771899 9.18488 0.852506 6.92885C0.9807 3.23842 4.07387 0.653168 7.17578 0.295779C11.0993 -0.156786 14.781 1.77875 15.2889 5.57893C15.8619 9.86761 13.5185 14.5137 9.324 14.1786C8.18676 14.0883 7.70895 13.5085 6.81839 12.9501Z" fill="#222222"/>
</svg>
