<svg width="25" height="20" viewBox="0 0 25 20" fill="none" xmlns="http://www.w3.org/2000/svg">
<path d="M24.0562 2.51515C23.1857 2.89066 22.2384 3.16092 21.2627 3.26617C22.2757 2.66432 23.0344 1.71349 23.3962 0.592074C22.4456 1.15759 21.4042 1.55413 20.3182 1.76413C19.8643 1.27888 19.3153 0.892312 18.7055 0.628508C18.0956 0.364704 17.438 0.229318 16.7736 0.230786C14.0853 0.230786 11.9232 2.40989 11.9232 5.08399C11.9232 5.4595 11.9687 5.83502 12.0427 6.1963C8.01733 5.98579 4.42721 4.06271 2.04043 1.11836C1.60554 1.86118 1.37763 2.70696 1.38044 3.56772C1.38044 5.25183 2.23672 6.73681 3.54248 7.61016C2.77298 7.57986 2.02149 7.36835 1.34915 6.99284V7.05258C1.34915 9.41091 3.01619 11.3653 5.23797 11.8148C4.82081 11.9231 4.39167 11.9786 3.96066 11.9798C3.64489 11.9798 3.34619 11.9485 3.04464 11.9058C3.65911 13.8289 5.44849 15.2257 7.57923 15.2712C5.91219 16.5769 3.82411 17.345 1.55682 17.345C1.15001 17.345 0.774501 17.3308 0.384766 17.2853C2.53542 18.665 5.0872 19.4615 7.83526 19.4615C16.7565 19.4615 21.6382 12.0708 21.6382 5.65579C21.6382 5.44528 21.6382 5.23477 21.6239 5.02425C22.5684 4.33297 23.3962 3.47669 24.0562 2.51515Z" fill="#222222"/>
</svg>
